<svg width="50" height="50" viewBox="0 0 50 50" fill="none" xmlns="http://www.w3.org/2000/svg">
<path d="M15.3208 23.1395V19.7957C15.3208 19.5978 15.3208 19.5187 15.5791 19.5187C17.7937 19.5187 19.5937 19.3874 20.4875 19.9145C21.3833 20.4395 21.4208 21.1645 21.4354 21.3812C21.45 21.5978 21.4437 21.9082 21.0271 22.6645C20.6104 23.4207 18.7458 23.4353 17.4 23.4353H15.6187C15.4 23.4353 15.3208 23.3562 15.3208 23.1395ZM21.4583 26.6437C21.6646 26.907 21.8119 27.2117 21.8902 27.537C21.9684 27.8624 21.9757 28.2007 21.9117 28.5291C21.8477 28.8575 21.7138 29.1683 21.5191 29.4404C21.3244 29.7125 21.0735 29.9396 20.7833 30.1062C20.3571 30.2855 19.8999 30.3796 19.4375 30.3832H15.5979C15.4 30.3832 15.3208 30.3832 15.3208 30.127V26.1687C15.3208 25.9707 15.3208 25.8916 15.5791 25.8916H18.1312C19.7146 25.8916 20.7041 25.7541 21.4583 26.6437Z" fill="#D9D9D9"/>
<path d="M35.3938 24.8103C35.2876 24.56 35.1265 24.3368 34.9224 24.1572C34.7183 23.9776 34.4764 23.8463 34.2146 23.7728C33.6914 23.6299 33.1437 23.5996 32.6079 23.684C32.0721 23.7684 31.5603 23.9655 31.1063 24.2624C30.6539 24.7195 30.3615 25.3108 30.273 25.9478C30.273 26.1708 30.273 26.2124 30.5375 26.2124H35.475C35.7188 26.2124 35.7188 26.2124 35.698 25.9062C35.6746 25.5233 35.5723 25.1498 35.3938 24.8103ZM35.3938 24.8103C35.2876 24.56 35.1245 24.3368 34.9203 24.1572C34.7162 23.9776 34.4764 23.8463 34.2146 23.7728C33.6914 23.6299 33.1437 23.5996 32.6079 23.684C32.0721 23.7684 31.5603 23.9655 31.1063 24.2624C30.6539 24.7195 30.3594 25.3108 30.2709 25.9478C30.2709 26.1708 30.2709 26.2124 30.5355 26.2124H35.475C35.7188 26.2124 35.7188 26.2124 35.698 25.9062C35.6746 25.5233 35.5681 25.1498 35.3896 24.8103M37.7084 5.20825H13.3334C11.1785 5.20825 9.11186 6.06428 7.58813 7.58801C6.0644 9.11174 5.20837 11.1784 5.20837 13.3333V37.7083C5.20837 39.8631 6.0644 41.9298 7.58813 43.4535C9.11186 44.9772 11.1785 45.8333 13.3334 45.8333H37.7084C39.8633 45.8333 41.9299 44.9772 43.4536 43.4535C44.9773 41.9298 45.8334 39.8631 45.8334 37.7083V13.3333C45.8334 11.1784 44.9773 9.11174 43.4536 7.58801C41.9299 6.06428 39.8633 5.20825 37.7084 5.20825ZM29.7459 18.1458C29.7459 17.9853 29.7459 17.9228 29.9292 17.9228H36.5105V19.6312C36.5105 19.6312 36.5167 19.752 36.4084 19.752H30.0313C29.7459 19.752 29.7459 19.752 29.7459 19.4687V18.1458ZM23.6521 33.077C21.1521 34.4374 16.95 33.8895 11.973 33.8895V17.0499H19.9146C21.9459 17.0499 24.3625 17.5583 25.0125 19.7103C25.3501 20.6503 25.3295 21.6816 24.9548 22.6074C24.5801 23.5332 23.8776 24.2885 22.9813 24.7291C23.8074 25.0348 24.5287 25.5708 25.0597 26.2737C25.5908 26.9765 25.9093 27.8168 25.9777 28.695C26.0461 29.5733 25.8614 30.4527 25.4456 31.2293C25.0298 32.0059 24.4002 32.6471 23.6313 33.077H23.6521ZM38.7855 28.2833H30.6605C30.4375 28.2833 30.2334 28.4041 30.273 28.6895C30.5167 29.8874 31.0646 31.1478 32.3063 31.3312C32.9619 31.5263 33.664 31.4963 34.3006 31.246C34.9372 30.9956 35.4717 30.5394 35.8188 29.9499C35.8188 29.9499 35.9209 29.827 35.9813 29.827H38.623C38.623 29.827 38.7855 29.827 38.7438 29.9687C38.4652 30.7575 38.0529 31.4926 37.525 32.1416C36.819 32.816 35.9671 33.3186 35.0353 33.6104C34.1036 33.9023 33.1171 33.9755 32.1525 33.8244C31.1879 33.6732 30.2711 33.3018 29.4733 32.739C28.6755 32.1762 28.0181 31.4371 27.5521 30.5791C27.2656 30.0069 27.0869 29.3868 27.025 28.7499C26.6627 27.1491 26.9396 25.47 27.7969 24.0703C28.6541 22.6706 30.024 21.6609 31.6146 21.2562C36.225 20.2603 39.15 23.4291 39.15 27.8978C39.1569 27.9501 39.1516 28.0032 39.1346 28.053C39.1177 28.1029 39.0895 28.1482 39.0523 28.1855C39.015 28.2227 38.9697 28.2509 38.9198 28.2679C38.87 28.2848 38.8169 28.2901 38.7646 28.2833H38.7855ZM34.2355 23.7728C33.7127 23.6278 33.1646 23.598 32.6292 23.6853C32.0938 23.7687 31.6146 23.8708 31.1271 24.2624C30.6396 24.652 30.3813 25.3103 30.2938 25.9478C30.2938 26.1708 30.2938 26.2124 30.5584 26.2124H35.475C35.7188 26.2124 35.7188 26.2124 35.698 25.9062C35.6746 25.5233 35.5723 25.1498 35.3938 24.8103C35.2876 24.56 35.1265 24.3368 34.9224 24.1572C34.7183 23.9776 34.4764 23.8463 34.2146 23.7728H34.2355Z" fill="#D9D9D9"/>
</svg>
