<svg width="45" height="45" viewBox="0 0 45 45" fill="none" xmlns="http://www.w3.org/2000/svg">
<g clip-path="url(#clip0_15_71)">
<mask id="mask0_15_71" style="mask-type:luminance" maskUnits="userSpaceOnUse" x="0" y="0" width="45" height="45">
<path d="M0 0H45V45H0V0Z" fill="white"/>
</mask>
<g mask="url(#mask0_15_71)">
<path d="M22.4906 0C10.0894 0 0 10.0913 0 22.4925C0 34.905 10.0894 45 22.4906 45C34.9031 45 45 34.9031 45 22.4925C45 10.0913 34.9031 0 22.4906 0ZM11.0775 30.7575C13.653 29.97 16.3306 29.5669 19.0238 29.5612C23.55 29.5612 28.0181 30.7087 31.9463 32.88C32.1806 33.0075 32.3925 33.4275 32.49 33.9525C32.5837 34.4775 32.5462 35.0156 32.3925 35.295C32.32 35.4279 32.2219 35.5451 32.1039 35.6398C31.9858 35.7345 31.8501 35.8048 31.7046 35.8466C31.5592 35.8885 31.4068 35.9011 31.2565 35.8836C31.1061 35.8662 30.9608 35.819 30.8287 35.745C27.9438 34.1615 24.77 33.1739 21.4959 32.8408C18.2218 32.5078 14.9141 32.8361 11.7694 33.8063C11.625 33.8529 11.4728 33.8704 11.3216 33.8577C11.1704 33.845 11.0232 33.8023 10.8887 33.7322C10.7542 33.662 10.6349 33.5658 10.5379 33.4491C10.4409 33.3324 10.3681 33.1976 10.3238 33.0525C10.1231 32.3963 10.5375 30.9337 11.0775 30.7575ZM10.0969 22.47C13.0062 21.6807 16.0073 21.2803 19.0219 21.2794C24.4481 21.2794 29.835 22.5919 34.6031 25.0781C34.9388 25.2469 35.1844 25.5356 35.2969 25.8881C35.3534 26.0662 35.3739 26.2537 35.3572 26.4398C35.3405 26.6259 35.2868 26.8068 35.1994 26.9719C34.7738 27.8044 34.275 28.365 33.9619 28.365C33.7337 28.3619 33.5093 28.3067 33.3056 28.2038C28.8987 25.9004 23.9963 24.7072 19.0238 24.7275C16.2579 24.721 13.504 25.09 10.8375 25.8244C10.4782 25.9221 10.0949 25.8733 9.77151 25.6888C9.44814 25.5042 9.21115 25.199 9.1125 24.84C8.9025 24.0487 9.38438 22.665 10.0969 22.47ZM9.84375 17.0588C9.63271 17.1129 9.41303 17.1247 9.19739 17.0936C8.98175 17.0624 8.77442 16.9888 8.58737 16.877C8.40032 16.7653 8.23726 16.6176 8.10759 16.4425C7.97792 16.2674 7.88421 16.0684 7.83187 15.8569C7.60125 14.9231 8.18437 13.8394 9.03187 13.6256C12.3011 12.8211 15.6551 12.4125 19.0219 12.4088C25.4906 12.4088 31.6894 13.8638 37.4419 16.7344C37.8364 16.9317 38.1368 17.2771 38.2773 17.6952C38.4179 18.1133 38.3871 18.5701 38.1919 18.9656C37.9237 19.5056 37.3425 20.0869 36.7012 20.0869C36.4496 20.0874 36.2011 20.0317 35.9738 19.9237C30.7142 17.2832 24.907 15.9176 19.0219 15.9375C15.9563 15.9375 12.8681 16.3144 9.84375 17.0588Z" fill="#D9D9D9"/>
</g>
</g>
<defs>
<clipPath id="clip0_15_71">
<rect width="45" height="45" fill="white"/>
</clipPath>
</defs>
</svg>
