<svg width="6432" height="1984" viewBox="0 0 6432 1984" fill="none" xmlns="http://www.w3.org/2000/svg">
<path d="M1076 292.4C1076 303.067 1080.53 312.133 1089.6 319.6C1098.67 327.067 1108.53 334.8 1119.2 342.8C1135.2 355.067 1155.2 367.867 1179.2 381.2C1203.73 394.533 1229.6 411.067 1256.8 430.8C1263.73 435.067 1270.93 441.2 1278.4 449.2C1285.87 456.667 1292 465.2 1296.8 474.8C1301.6 484.4 1304 494.8 1304 506C1304 516.667 1300.53 527.6 1293.6 538.8C1287.73 578.8 1280.53 608.933 1272 629.2C1264 648.933 1254.93 663.067 1244.8 671.6C1234.67 680.133 1224 685.2 1212.8 686.8C1201.6 688.4 1190.13 690.8 1178.4 694C1205.6 672.667 1222.67 651.067 1229.6 629.2C1236.53 607.333 1229.87 586.267 1209.6 566C1186.67 545.2 1162.67 528.667 1137.6 516.4C1113.07 504.133 1092.53 493.467 1076 484.4C1068.53 480.667 1062.93 476.933 1059.2 473.2V924.4C1068.8 922.8 1079.47 924.667 1091.2 930C1103.47 935.333 1114.93 942 1125.6 950C1136.8 957.467 1146.13 965.467 1153.6 974C1161.07 982 1164.8 987.867 1164.8 991.6L1047.2 1109.2C1047.2 1104.4 1042.4 1096.93 1032.8 1086.8C1023.2 1076.67 1012 1067.33 999.2 1058.8C986.4 1050.27 973.333 1044.13 960 1040.4C947.2 1036.67 937.067 1038.53 929.6 1046L1040 934.8V741.2C1037.33 747.067 1035.47 751.067 1034.4 753.2C1033.33 755.333 1031.73 759.6 1029.6 766C1010.93 816.133 983.733 852.4 948 874.8C912.267 897.2 872.533 906.8 828.8 903.6C883.2 883.333 921.067 862.267 942.4 840.4C964.267 818.533 967.733 794 952.8 766.8C937.333 746 922.933 727.067 909.6 710C896.267 692.933 883.467 676.933 871.2 662C858.933 651.333 846.667 640.933 834.4 630.8C822.133 620.667 810.4 611.6 799.2 603.6C784.8 630.267 772.533 656.933 762.4 683.6C752.267 710.267 746.4 736.933 744.8 763.6C743.2 789.733 746.667 815.867 755.2 842C764.267 868.133 780.267 893.733 803.2 918.8C826.133 944.933 848 968.667 868.8 990C890.133 1011.33 910.4 1030 929.6 1046C966.933 1079.6 1002.4 1102.53 1036 1114.8C1069.6 1126.53 1102.67 1124.67 1135.2 1109.2C1145.33 1102.8 1155.47 1094.8 1165.6 1085.2C1175.73 1075.6 1184.8 1065.2 1192.8 1054C1201.33 1042.27 1208.27 1030 1213.6 1017.2C1219.47 1004.4 1223.2 991.6 1224.8 978.8C1230.13 992.133 1229.6 1008.4 1223.2 1027.6C1216.8 1046.27 1206.93 1066 1193.6 1086.8C1180.27 1107.07 1164.53 1127.33 1146.4 1147.6C1128.8 1167.87 1111.2 1186.53 1093.6 1203.6C1076.53 1220.67 1060.8 1235.07 1046.4 1246.8C1032 1258.53 1021.6 1265.73 1015.2 1268.4C1009.87 1275.87 1006.13 1281.73 1004 1286C1001.87 1290.27 999.733 1294 997.6 1297.2C995.467 1300.93 992.533 1304.93 988.8 1309.2C985.6 1314 979.733 1320.67 971.2 1329.2C968 1311.07 961.6 1294.27 952 1278.8C942.933 1263.87 932 1250 919.2 1237.2C906.933 1224.4 893.867 1212.67 880 1202C866.133 1191.33 853.333 1181.47 841.6 1172.4C818.133 1153.73 794.667 1133.2 771.2 1110.8C747.733 1087.87 723.467 1063.33 698.4 1037.2C668 1003.6 649.333 969.733 642.4 935.6C636 901.467 636.8 867.333 644.8 833.2C653.333 798.533 666.933 764.133 685.6 730C704.267 695.333 724 661.467 744.8 628.4L779.2 590.8C728 558.8 677.6 536.133 628 522.8C578.933 508.933 530.133 502 481.6 502C445.333 502.533 411.2 506.8 379.2 514.8C347.733 522.8 317.067 533.733 287.2 547.6C283.467 548.667 279.733 550 276 551.6C272.267 552.667 268.8 554.533 265.6 557.2C244.8 582.267 228.533 610.8 216.8 642.8C204.533 674.8 197.067 709.2 194.4 746C191.733 773.2 193.067 799.067 198.4 823.6C203.2 848.133 211.733 871.6 224 894C245.867 936.667 276.8 972.133 316.8 1000.4C335.467 1013.2 355.2 1023.6 376 1031.6C397.333 1039.07 418.4 1043.07 439.2 1043.6C464.8 1045.73 490.933 1043.6 517.6 1037.2C517.6 1035.6 518.133 1033.73 519.2 1031.6C520.267 1025.2 524.533 1019.87 532 1015.6C540 1011.33 548.533 1008.13 557.6 1006C567.2 1003.33 576 1002 584 1002C592 1002 597.067 1003.07 599.2 1005.2C595.467 1012.67 590.133 1019.07 583.2 1024.4C576.8 1029.73 569.867 1034 562.4 1037.2C554.933 1040.4 547.467 1042.53 540 1043.6C533.067 1044.67 527.733 1044.67 524 1043.6C510.133 1047.87 496 1051.07 481.6 1053.2C467.733 1054.8 453.6 1054.53 439.2 1052.4C392.267 1050.8 349.067 1035.6 309.6 1006.8C290.4 992.933 272.8 976.933 256.8 958.8C240.267 940.667 226.667 920.933 216 899.6C203.733 877.2 194.667 852.933 188.8 826.8C182.933 800.133 181.333 773.2 184 746C186.667 711.867 193.067 679.867 203.2 650C212.8 620.133 226.667 592.933 244.8 568.4C224.533 581.733 205.333 595.867 187.2 610.8C168.533 625.2 151.733 640.4 136.8 656.4C104.8 691.067 80.2666 728.667 63.2 769.2C46.1333 809.2 38.4 850.267 40 892.4C40 926 44 957.2 52 986C60 1014.8 71.4667 1042 86.4 1067.6C101.867 1093.73 121.333 1117.47 144.8 1138.8C167.733 1160.13 192.8 1178.53 220 1194C258.4 1214.8 298.667 1230 340.8 1239.6C383.467 1249.73 425.867 1252.13 468 1246.8C500.533 1243.07 531.733 1236.13 561.6 1226C592 1215.87 620 1201.47 645.6 1182.8C646.133 1176.4 649.067 1169.73 654.4 1162.8C660.267 1155.87 666.4 1149.73 672.8 1144.4C679.733 1138.53 686.4 1134 692.8 1130.8C699.733 1127.6 704.533 1126.27 707.2 1126.8C707.2 1137.47 704.533 1147.87 699.2 1158C693.867 1167.6 687.733 1175.87 680.8 1182.8C674.4 1189.2 667.733 1193.73 660.8 1196.4C654.4 1199.07 650.133 1198.27 648 1194C620.8 1212.67 592.267 1226.8 562.4 1236.4C532.533 1246 502.4 1252.93 472 1257.2C427.733 1261.47 383.2 1258.53 338.4 1248.4C294.133 1238.8 253.067 1223.33 215.2 1202C186.933 1186 161.333 1167.33 138.4 1146C114.933 1124.13 94.9333 1099.6 78.4 1072.4C63.4667 1046.8 51.7333 1019.07 43.2 989.2C34.1333 958.8 29.0666 926.533 28 892.4C28 849.2 36.8 807.067 54.4 766C72 724.933 97.0667 686.8 129.6 651.6C146.667 631.333 166.4 612.667 188.8 595.6C210.667 578.533 234.667 563.333 260.8 550C266.667 542.533 273.067 535.867 280 530C307.2 503.333 339.2 482.267 376 466.8C412.8 451.333 453.333 443.6 497.6 443.6C536 443.6 573.333 449.467 609.6 461.2C645.867 472.933 680 488.133 712 506.8C728.533 515.867 744 525.467 758.4 535.6C773.333 545.2 787.467 555.333 800.8 566H803.2C792.533 547.867 785.867 531.333 783.2 516.4C780.533 501.467 784.267 485.733 794.4 469.2C794.933 466.533 798.667 461.2 805.6 453.2C813.067 444.667 822.4 433.2 833.6 418.8C843.2 407.6 853.867 395.067 865.6 381.2C877.333 367.333 889.067 354.267 900.8 342C912.533 329.733 923.467 319.333 933.6 310.8C943.733 302.267 951.733 297.733 957.6 297.2C941.067 320.667 928 341.2 918.4 358.8C909.333 376.4 903.467 392.667 900.8 407.6C898.667 422 899.733 435.867 904 449.2C908.267 462.533 916 476.4 927.2 490.8C933.067 498.8 940 508.933 948 521.2C956 532.933 964.8 546 974.4 560.4C984.533 574.8 994.933 590 1005.6 606C1016.8 622 1028.27 638 1040 654V450.8C1034.13 440.133 1031.73 427.867 1032.8 414C1034.4 400.133 1038.93 384.933 1046.4 368.4H1043.2L1040 183.6C1041.07 172.933 1044 161.733 1048.8 150C1054.13 137.733 1062.67 125.467 1074.4 113.2C1086.67 100.4 1102.67 87.5999 1122.4 74.7999C1142.67 61.4666 1168.53 48.3999 1200 35.6C1201.07 42.5333 1200.53 50.2666 1198.4 58.7999C1196.8 66.7999 1197.33 74.7999 1200 82.8C1204.27 100.933 1205.6 116.933 1204 130.8C1202.4 144.133 1199.47 152.133 1195.2 154.8C1188.8 147.867 1182.93 144.4 1177.6 144.4C1172.27 144.4 1167.47 144.933 1163.2 146C1153.6 148.667 1143.47 155.333 1132.8 166C1122.13 176.667 1112 189.2 1102.4 203.6C1092.8 218 1084 233.2 1076 249.2C1068.53 264.667 1062.93 278.533 1059.2 290.8C1058.13 292.933 1057.6 296.667 1057.6 302C1057.6 307.333 1057.6 313.467 1057.6 320.4C1060.27 309.2 1066.4 299.867 1076 292.4ZM1183.2 750.8C1200.27 737.467 1215.73 729.2 1229.6 726C1244 722.267 1257.33 721.467 1269.6 723.6C1282.4 725.2 1294.67 728.667 1306.4 734C1318.67 738.8 1331.47 743.333 1344.8 747.6C1358.13 751.333 1372.53 753.733 1388 754.8C1403.47 755.333 1420.8 752.133 1440 745.2L1368 834C1370.67 831.333 1373.07 829.2 1375.2 827.6C1377.33 825.467 1380 823.067 1383.2 820.4C1385.33 840.133 1387.47 865.733 1389.6 897.2C1392.27 928.133 1394.13 961.733 1395.2 998C1396.8 1033.73 1397.07 1070.8 1396 1109.2C1395.47 1147.07 1393.07 1183.33 1388.8 1218C1384.53 1252.13 1378.13 1282.53 1369.6 1309.2C1361.07 1336.4 1349.87 1356.93 1336 1370.8L1224.8 1474.8L1100.8 1634C1106.13 1615.87 1102.93 1598.27 1091.2 1581.2C1079.47 1564.67 1061.6 1548.93 1037.6 1534C1014.13 1519.07 985.867 1505.2 952.8 1492.4C920.267 1479.6 885.6 1468.4 848.8 1458.8C812.533 1449.2 775.467 1441.2 737.6 1434.8C699.733 1428.4 663.733 1423.87 629.6 1421.2C596 1418.53 565.867 1418 539.2 1419.6C512.533 1421.73 491.733 1426.27 476.8 1433.2C453.333 1456.67 440.533 1481.2 438.4 1506.8C436.267 1532.93 442.133 1558 456 1582C470.4 1606 490.933 1628.4 517.6 1649.2C544.267 1670 574.4 1687.07 608 1700.4C642.133 1713.73 678.133 1722.53 716 1726.8C753.867 1731.07 790.667 1728.67 826.4 1719.6C862.667 1710.53 896.267 1694 927.2 1670C958.667 1646.53 984.533 1613.47 1004.8 1570.8C1010.13 1595.33 1009.6 1621.73 1003.2 1650C997.333 1678.27 987.733 1705.73 974.4 1732.4C961.067 1759.6 945.6 1784.67 928 1807.6C910.4 1830.53 892.8 1848.67 875.2 1862C862.933 1872.13 853.6 1881.73 847.2 1890.8C840.8 1899.87 835.733 1907.6 832 1914C828.8 1920.93 826.133 1926.27 824 1930C821.867 1934.27 818.933 1936.4 815.2 1936.4C799.2 1925.73 782.4 1917.47 764.8 1911.6C747.2 1905.73 727.733 1899.6 706.4 1893.2C685.067 1886.8 661.333 1879.07 635.2 1870C609.067 1860.93 579.733 1847.87 547.2 1830.8C489.6 1802 446.933 1771.87 419.2 1740.4C391.467 1708.93 374.133 1677.73 367.2 1646.8C360.267 1615.87 361.867 1586 372 1557.2C382.133 1528.4 396.267 1502 414.4 1478C426.667 1461.47 441.067 1444.4 457.6 1426.8C474.667 1409.2 489.867 1392.13 503.2 1375.6L501.6 1365.2C519.2 1342.27 548.267 1325.2 588.8 1314C629.867 1303.33 680.8 1300.67 741.6 1306C802.933 1311.87 873.6 1327.07 953.6 1351.6C1033.6 1376.67 1121.87 1413.2 1218.4 1461.2L1227.2 1450C1231.47 1437.2 1233.87 1422.8 1234.4 1406.8C1235.47 1391.33 1236 1372.4 1236 1350C1239.2 1315.87 1241.87 1281.47 1244 1246.8C1246.13 1212.67 1247.47 1179.6 1248 1147.6C1249.07 1115.07 1249.07 1083.87 1248 1054C1246.93 1024.13 1244.53 996.667 1240.8 971.6C1252.53 956.667 1264.27 942.533 1276 929.2C1287.73 915.333 1300.8 901.467 1315.2 887.6C1317.87 883.333 1320.53 879.6 1323.2 876.4C1326.4 872.667 1329.33 869.2 1332 866C1320.8 867.067 1309.07 866 1296.8 862.8C1285.07 859.6 1272.8 855.867 1260 851.6C1247.73 847.333 1234.93 843.867 1221.6 841.2C1208.27 838 1194.13 837.2 1179.2 838.8C1164.8 840.4 1149.6 845.2 1133.6 853.2C1118.13 861.2 1101.6 874.267 1084 892.4C1090.93 881.733 1099.2 870.533 1108.8 858.8C1118.93 847.067 1128.8 835.067 1138.4 822.8C1148 810.533 1156.8 798.267 1164.8 786C1172.8 773.733 1178.93 762 1183.2 750.8ZM795.2 576.4C769.067 551.867 739.733 531.067 707.2 514C675.2 495.867 641.6 481.2 606.4 470C571.2 458.8 534.933 453.2 497.6 453.2C455.467 453.2 416.267 460.667 380 475.6C344.267 490 313.333 510.267 287.2 536.4L283.2 538.8C313.6 524.933 345.067 514 377.6 506C410.667 498 445.333 493.733 481.6 493.2C530.133 493.2 580 500.4 631.2 514.8C682.4 529.2 734.133 552.667 786.4 585.2L795.2 576.4ZM808 585.2C805.867 587.867 804.533 589.733 804 590.8C803.467 591.867 803.2 593.733 803.2 596.4C810.133 601.2 817.333 606 824.8 610.8C832.267 615.6 839.467 621.467 846.4 628.4C843.733 624.133 840.8 620.133 837.6 616.4C834.4 612.667 832 609.2 830.4 606C827.2 602.267 823.733 598.533 820 594.8C816.267 591.067 812.267 587.867 808 585.2ZM1573.7 749.2L1611.3 677.2C1623.57 683.067 1634.5 688.133 1644.1 692.4C1653.7 696.667 1663.3 700.4 1672.9 703.6C1682.5 706.8 1692.37 709.467 1702.5 711.6C1712.63 713.733 1724.63 715.067 1738.5 715.6C1752.37 716.133 1764.1 716.4 1773.7 716.4C1783.83 716.4 1792.9 715.867 1800.9 714.8C1808.9 713.733 1816.37 711.867 1823.3 709.2C1830.77 706 1838.5 701.733 1846.5 696.4C1844.37 707.067 1841.17 715.333 1836.9 721.2C1832.63 727.067 1828.1 732.933 1823.3 738.8C1818.5 744.133 1813.7 750.533 1808.9 758C1804.63 764.933 1801.17 774.8 1798.5 787.6C1797.97 811.6 1797.43 834 1796.9 854.8C1796.37 875.6 1795.83 896.4 1795.3 917.2C1795.3 937.467 1794.77 958.267 1793.7 979.6C1793.17 1000.93 1792.63 1023.6 1792.1 1047.6C1792.1 1065.2 1793.43 1079.33 1796.1 1090C1799.3 1100.13 1803.3 1108.93 1808.1 1116.4C1812.9 1123.33 1818.23 1129.2 1824.1 1134C1830.5 1138.8 1836.9 1144.4 1843.3 1150.8L1755.3 1241.2C1745.17 1232.13 1735.83 1223.87 1727.3 1216.4C1719.3 1208.4 1712.1 1200.67 1705.7 1193.2C1699.3 1185.73 1693.7 1178 1688.9 1170C1684.63 1162 1681.17 1152.93 1678.5 1142.8C1676.37 1144.93 1673.17 1147.6 1668.9 1150.8L1576.1 1245.2C1568.63 1240.93 1561.17 1235.33 1553.7 1228.4C1546.77 1220.93 1539.83 1212.93 1532.9 1204.4C1526.5 1195.33 1520.63 1186 1515.3 1176.4C1509.97 1166.27 1505.7 1156.4 1502.5 1146.8L1501.7 1146C1495.3 1154.53 1487.03 1163.33 1476.9 1172.4C1466.23 1180.93 1455.83 1185.2 1445.7 1185.2C1458.5 1162.8 1468.9 1140.67 1476.9 1118.8C1484.37 1096.93 1488.9 1074 1490.5 1050C1489.97 1021.2 1489.97 986 1490.5 944.4C1491.57 902.8 1492.1 850.267 1492.1 786.8L1573.7 749.2ZM1648.9 1139.6C1649.97 1141.2 1652.9 1141.47 1657.7 1140.4C1663.03 1127.07 1666.77 1112.93 1668.9 1098C1671.03 1083.07 1672.63 1067.87 1673.7 1052.4V1049.2V1023.6V1018.8V986.8C1673.17 959.6 1672.9 932.4 1672.9 905.2C1672.9 877.467 1674.5 852.4 1677.7 830C1665.97 827.333 1654.77 824.667 1644.1 822C1633.97 818.8 1624.37 815.867 1615.3 813.2C1613.7 854.8 1612.37 894.267 1611.3 931.6C1610.77 968.933 1610.5 1002.27 1610.5 1031.6C1610.5 1042.27 1611.57 1053.2 1613.7 1064.4C1615.83 1075.6 1618.77 1086.27 1622.5 1096.4C1626.23 1106 1630.23 1114.8 1634.5 1122.8C1639.3 1130.27 1644.1 1135.87 1648.9 1139.6ZM1906.93 586.8C1906.93 575.6 1906.93 564.667 1906.93 554C1906.93 543.333 1907.46 533.2 1908.53 523.6C1909.59 513.467 1911.46 503.867 1914.13 494.8C1917.33 485.733 1921.86 477.467 1927.73 470C1935.19 460.4 1944.53 451.6 1955.73 443.6C1967.46 435.6 1979.99 428.4 1993.33 422C2006.66 415.067 2020.26 408.933 2034.13 403.6C2048.53 397.733 2062.66 392.4 2076.53 387.6C2067.46 395.067 2059.99 401.733 2054.13 407.6C2048.26 412.933 2043.73 419.867 2040.53 428.4C2034.13 444.933 2030.93 463.6 2030.93 484.4C2031.46 504.667 2031.46 524.933 2030.93 545.2C2029.86 583.067 2029.06 623.333 2028.53 666C2028.53 708.133 2028.26 750 2027.73 791.6C2033.06 782 2038.93 771.867 2045.33 761.2C2051.73 750 2058.66 739.067 2066.13 728.4C2076.79 712.4 2086.93 698.267 2096.53 686C2106.13 673.2 2114.39 666.533 2121.33 666C2127.19 671.333 2133.33 676.667 2139.73 682C2145.59 686.267 2151.73 691.067 2158.13 696.4C2165.06 701.733 2171.99 706.533 2178.93 710.8C2187.99 716.667 2195.19 720.667 2200.53 722.8C2206.39 724.4 2211.19 725.2 2214.93 725.2C2219.19 725.2 2222.66 724.4 2225.33 722.8C2225.33 728.667 2220.53 738 2210.93 750.8C2210.93 760.4 2210.93 773.467 2210.93 790C2210.93 806 2210.93 823.867 2210.93 843.6C2210.93 862.8 2210.93 882.533 2210.93 902.8C2210.93 923.067 2210.93 942 2210.93 959.6C2210.93 979.333 2206.66 998 2198.13 1015.6C2190.13 1033.2 2180.79 1048.93 2170.13 1062.8C2159.46 1076.67 2149.06 1088.4 2138.93 1098C2129.33 1107.07 2122.66 1113.2 2118.93 1116.4C2115.19 1120.67 2110.93 1125.47 2106.12 1130.8C2101.86 1135.6 2097.06 1139.87 2091.73 1143.6L1991.73 1245.2C1984.26 1240.93 1976.79 1235.33 1969.33 1228.4C1962.39 1221.47 1955.46 1213.73 1948.53 1205.2C1942.13 1196.13 1936.26 1186.8 1930.93 1177.2C1925.59 1167.07 1921.33 1157.2 1918.13 1147.6L1917.33 1146.8C1910.93 1155.33 1902.66 1164.13 1892.52 1173.2C1881.86 1181.73 1871.46 1186 1861.32 1186C1875.19 1161.47 1886.12 1137.47 1894.12 1114C1902.12 1090.53 1906.66 1065.73 1907.73 1039.6C1906.66 1010.8 1906.12 978.267 1906.12 942C1905.59 905.2 1905.32 867.067 1905.32 827.6C1905.32 788.133 1905.59 747.867 1906.12 706.8C1906.66 665.2 1906.93 625.2 1906.93 586.8ZM2067.73 1134C2068.26 1135.07 2070.13 1135.6 2073.33 1135.6C2077.59 1124.4 2080.79 1112.67 2082.93 1100.4C2085.06 1088.13 2086.66 1075.87 2087.73 1063.6L2090.13 797.2C2083.73 792.933 2077.33 788.933 2070.93 785.2C2065.06 781.467 2059.99 778 2055.73 774.8C2055.19 774.8 2051.73 779.6 2045.33 789.2C2039.46 798.8 2033.33 808.667 2026.93 818.8C2026.93 843.867 2026.66 867.6 2026.13 890C2026.13 912.4 2026.13 932.933 2026.13 951.6C2026.13 970.267 2026.13 986.8 2026.13 1001.2C2026.13 1015.07 2026.13 1025.73 2026.13 1033.2C2026.13 1043.87 2027.19 1054.53 2029.33 1065.2C2031.99 1075.33 2035.19 1084.93 2038.93 1094C2043.19 1102.53 2047.73 1110.53 2052.53 1118C2057.86 1124.93 2062.93 1130.27 2067.73 1134ZM2332.91 1233.2C2318.51 1224.67 2305.71 1211.6 2294.51 1194C2283.84 1176.4 2275.57 1158.27 2269.71 1139.6C2269.71 1139.6 2269.44 1139.33 2268.91 1138.8C2262.51 1147.33 2253.97 1155.87 2243.31 1164.4C2232.64 1172.4 2222.24 1176.4 2212.11 1176.4C2225.44 1155.07 2236.37 1133.73 2244.91 1112.4C2252.91 1091.07 2257.44 1068.67 2258.51 1045.2C2259.04 1021.73 2259.84 993.467 2260.91 960.4C2261.97 926.8 2262.51 884.133 2262.51 832.4C2262.51 815.867 2261.44 803.333 2259.31 794.8C2257.71 786.267 2255.31 780.4 2252.11 777.2C2248.37 774 2243.84 772.4 2238.51 772.4C2233.17 771.867 2227.31 771.6 2220.91 771.6L2336.91 673.2C2355.57 690.267 2368.37 706 2375.31 720.4C2382.24 734.267 2386.24 747.333 2387.31 759.6C2397.97 746.267 2409.17 732.4 2420.91 718C2433.17 703.6 2443.04 690.267 2450.51 678C2450.51 678 2451.84 679.6 2454.51 682.8C2457.71 686 2461.44 690 2465.71 694.8C2469.97 699.067 2474.77 703.867 2480.11 709.2C2485.97 714 2491.84 718.533 2497.71 722.8C2504.64 728.667 2510.51 732.4 2515.31 734C2520.64 735.6 2524.64 736.4 2527.31 736.4C2530.51 736.4 2533.17 735.333 2535.31 733.2C2535.84 737.467 2533.71 743.867 2528.91 752.4C2524.64 760.4 2518.51 770 2510.51 781.2C2502.51 791.867 2493.17 803.6 2482.51 816.4C2472.37 828.667 2461.71 840.933 2450.51 853.2C2439.84 844.133 2429.17 835.6 2418.51 827.6C2408.37 819.067 2397.97 810.267 2387.31 801.2C2386.24 848.133 2384.37 890 2381.71 926.8C2379.57 963.6 2378.51 998 2378.51 1030C2378.51 1040.67 2379.57 1051.33 2381.71 1062C2383.84 1072.13 2386.77 1082 2390.51 1091.6C2394.24 1101.2 2398.51 1109.73 2403.31 1117.2C2408.11 1124.67 2412.91 1130.27 2417.71 1134C2420.91 1136.13 2423.31 1137.47 2424.91 1138C2440.37 1122.53 2453.71 1106.8 2464.91 1090.8C2476.64 1074.8 2483.04 1060.4 2484.11 1047.6C2489.97 1049.2 2493.44 1052.13 2494.51 1056.4C2496.11 1060.67 2493.97 1068.13 2488.11 1078.8C2484.37 1085.2 2477.44 1094 2467.31 1105.2C2457.71 1116.4 2446.51 1128.4 2433.71 1141.2C2433.71 1142.27 2429.17 1147.33 2420.11 1156.4L2405.71 1169.2C2390.24 1184.13 2375.57 1197.73 2361.71 1210C2348.37 1222.27 2338.51 1230.53 2332.11 1234.8L2332.91 1233.2ZM2633.71 676.4C2647.04 688.133 2657.17 699.333 2664.11 710C2671.04 720.667 2675.84 730.8 2678.51 740.4C2681.71 750 2683.31 759.067 2683.31 767.6C2683.84 775.6 2684.11 783.333 2684.11 790.8C2683.04 841.467 2681.17 886.8 2678.51 926.8C2675.84 966.267 2674.51 1003.6 2674.51 1038.8C2674.51 1049.47 2675.57 1060.13 2677.71 1070.8C2679.84 1081.47 2682.77 1091.6 2686.51 1101.2C2690.24 1110.27 2694.24 1118.53 2698.51 1126C2703.31 1133.47 2708.11 1139.07 2712.91 1142.8C2716.11 1145.47 2719.31 1147.33 2722.51 1148.4C2726.24 1148.93 2728.64 1149.73 2729.71 1150.8C2731.31 1151.33 2731.31 1152.67 2729.71 1154.8C2728.64 1156.4 2725.17 1159.87 2719.31 1165.2L2630.51 1244.4C2616.11 1236.4 2603.57 1223.33 2592.91 1205.2C2582.24 1187.07 2573.97 1168.67 2568.11 1150L2567.31 1149.2C2560.91 1157.73 2552.64 1166.27 2542.51 1174.8C2531.84 1183.33 2521.71 1187.6 2512.11 1187.6C2525.44 1164.67 2536.11 1142 2544.11 1119.6C2552.11 1097.2 2556.64 1073.73 2557.71 1049.2V1029.2V1027.6V1028.4C2558.24 1006 2558.77 979.6 2559.31 949.2C2560.37 918.267 2560.91 881.2 2560.91 838C2560.91 820.933 2559.84 808.133 2557.71 799.6C2556.11 791.067 2553.71 785.2 2550.51 782C2547.31 778.267 2543.31 776.4 2538.51 776.4C2533.17 775.867 2527.31 775.6 2520.91 775.6L2633.71 676.4ZM2542.51 569.2L2621.71 490.8C2626.51 496.133 2632.11 502.533 2638.51 510C2645.44 517.467 2652.64 524.933 2660.11 532.4C2667.57 539.867 2675.04 546.533 2682.51 552.4C2690.51 557.733 2698.24 560.933 2705.71 562L2620.91 649.2L2542.51 569.2ZM2775.69 1022.8C2775.16 1020.13 2774.89 1017.73 2774.89 1015.6C2774.89 1012.93 2774.89 1010.27 2774.89 1007.6C2774.36 995.333 2774.09 983.067 2774.09 970.8C2774.09 958.533 2774.09 946 2774.09 933.2C2766.63 932.133 2760.76 930.8 2756.49 929.2C2751.69 927.6 2749.83 925.2 2750.89 922H2774.09C2774.63 901.733 2775.16 881.2 2775.69 860.4C2776.76 839.067 2777.29 817.733 2777.29 796.4C2791.16 789.467 2803.43 783.333 2814.09 778C2825.29 772.667 2835.69 767.867 2845.29 763.6C2854.89 758.8 2864.23 754.267 2873.29 750C2882.36 745.2 2891.96 739.867 2902.09 734C2918.09 716.933 2931.96 702.533 2943.69 690.8C2955.96 679.067 2966.36 668.667 2974.89 659.6C2983.43 667.6 2991.96 675.067 3000.49 682C3007.96 687.867 3015.69 694 3023.69 700.4C3032.23 706.8 3039.96 712.133 3046.89 716.4C3055.96 722.267 3063.16 726.267 3068.49 728.4C3074.36 730 3079.16 730.8 3082.89 730.8C3087.16 730.8 3090.63 730 3093.29 728.4C3093.83 732.667 3090.89 739.067 3084.49 747.6C3078.63 756.133 3070.63 766 3060.49 777.2C3050.36 788.4 3038.36 800.667 3024.49 814C3011.16 826.8 2997.29 839.6 2982.89 852.4C2968.49 865.2 2954.09 877.467 2939.69 889.2C2925.29 900.4 2912.23 910.267 2900.49 918.8V921.2C2910.63 921.2 2920.76 921.2 2930.89 921.2C2941.56 920.667 2953.29 920.4 2966.09 920.4C2978.89 920.4 2993.56 920.4 3010.09 920.4C3026.63 919.867 3046.36 919.6 3069.29 919.6C3067.69 924.933 3064.76 929.467 3060.49 933.2C3056.76 936.933 3046.63 938.8 3030.09 938.8C3007.69 938.8 2989.29 938.8 2974.89 938.8C2961.03 938.267 2949.56 938 2940.49 938C2931.43 937.467 2923.96 937.2 2918.09 937.2C2912.23 936.667 2906.09 936.4 2899.69 936.4V965.2C2898.63 999.867 2903.69 1028.13 2914.89 1050C2926.09 1071.33 2938.89 1088.13 2953.29 1100.4C2967.69 1112.13 2981.56 1120.13 2994.89 1124.4C3008.23 1128.13 3016.76 1129.73 3020.49 1129.2C3029.56 1128.13 3037.56 1125.73 3044.49 1122C3051.96 1117.73 3058.36 1113.2 3063.69 1108.4C3069.03 1103.07 3073.56 1098 3077.29 1093.2C3081.03 1088.4 3084.23 1084.4 3086.89 1081.2C3091.69 1085.47 3091.96 1091.6 3087.69 1099.6C3083.96 1107.07 3078.09 1115.33 3070.09 1124.4C3062.09 1132.93 3053.56 1140.93 3044.49 1148.4C3035.96 1155.87 3029.83 1161.2 3026.09 1164.4C3011.16 1176.13 2993.83 1189.47 2974.09 1204.4C2954.36 1218.8 2932.76 1230.53 2909.29 1239.6C2883.16 1224.67 2861.56 1207.33 2844.49 1187.6C2827.43 1167.87 2813.56 1146.8 2802.89 1124.4C2801.29 1128.13 2797.83 1133.73 2792.49 1141.2C2787.69 1148.67 2781.83 1156.13 2774.89 1163.6C2767.96 1171.07 2760.76 1177.73 2753.29 1183.6C2745.29 1188.93 2737.83 1191.6 2730.89 1191.6C2746.36 1164.4 2758.09 1136.93 2766.09 1109.2C2773.56 1081.47 2776.76 1052.67 2775.69 1022.8ZM2974.89 835.6C2970.09 833.467 2964.49 830.533 2958.09 826.8C2951.69 822.533 2945.29 818.267 2938.89 814C2932.49 809.2 2926.09 804.667 2919.69 800.4C2913.29 795.6 2907.69 791.6 2902.89 788.4L2900.49 901.2C2908.49 895.333 2917.29 888.933 2926.89 882C2936.49 874.533 2945.03 867.6 2952.49 861.2C2960.49 854.8 2966.63 849.2 2970.89 844.4C2975.16 839.6 2976.49 836.667 2974.89 835.6ZM3143.64 1023.6C3142.58 994.8 3142.04 962.8 3142.04 927.6C3142.04 891.867 3142.04 855.067 3142.04 817.2C3142.04 778.8 3142.31 740.133 3142.84 701.2C3143.38 661.733 3143.64 623.6 3143.64 586.8C3143.64 575.6 3143.64 564.667 3143.64 554C3143.64 543.333 3144.18 533.2 3145.24 523.6C3146.31 513.467 3148.18 503.867 3150.84 494.8C3154.04 485.733 3158.58 477.467 3164.44 470C3171.91 460.4 3181.24 451.6 3192.44 443.6C3204.18 435.6 3216.71 428.4 3230.04 422C3243.38 415.067 3256.98 408.933 3270.84 403.6C3285.24 397.733 3299.38 392.4 3313.24 387.6C3304.18 395.067 3296.71 401.733 3290.84 407.6C3284.98 412.933 3280.44 419.867 3277.24 428.4C3270.84 444.933 3267.64 463.6 3267.64 484.4C3268.18 504.667 3268.18 524.933 3267.64 545.2C3267.11 574.533 3266.58 605.733 3266.04 638.8C3265.51 671.333 3264.98 704.133 3264.44 737.2C3264.44 769.733 3264.18 801.733 3263.64 833.2C3263.64 864.667 3263.38 893.733 3262.84 920.4C3262.84 946.533 3262.84 969.467 3262.84 989.2C3262.84 1008.93 3262.84 1023.6 3262.84 1033.2C3262.84 1043.87 3263.91 1054.53 3266.04 1065.2C3268.71 1075.33 3271.91 1084.93 3275.64 1094C3279.91 1102.53 3284.44 1110.53 3289.24 1118C3294.58 1124.93 3299.64 1130.27 3304.44 1134C3309.24 1137.73 3313.51 1139.07 3317.24 1138C3321.51 1136.93 3324.98 1135.33 3327.64 1133.2C3330.31 1131.07 3332.18 1129.73 3333.24 1129.2C3334.84 1128.67 3335.91 1130.8 3336.44 1135.6L3228.44 1245.2C3220.98 1240.93 3213.51 1235.33 3206.04 1228.4C3199.11 1221.47 3192.18 1213.73 3185.24 1205.2C3178.84 1196.13 3172.98 1186.8 3167.64 1177.2C3162.31 1167.07 3158.04 1157.2 3154.84 1147.6L3154.04 1146.8C3147.64 1155.33 3139.38 1164.13 3129.24 1173.2C3118.58 1181.73 3108.18 1186 3098.04 1186C3113.51 1158.8 3125.24 1132.13 3133.24 1106C3141.24 1079.33 3144.71 1051.07 3143.64 1021.2V1023.6ZM3459.64 749.2L3497.24 677.2C3509.5 683.067 3520.44 688.133 3530.04 692.4C3539.64 696.667 3549.24 700.4 3558.84 703.6C3568.44 706.8 3578.3 709.467 3588.44 711.6C3598.57 713.733 3610.57 715.067 3624.44 715.6C3638.3 716.133 3650.04 716.4 3659.64 716.4C3669.77 716.4 3678.84 715.867 3686.84 714.8C3694.84 713.733 3702.3 711.867 3709.24 709.2C3716.7 706 3724.44 701.733 3732.44 696.4C3730.3 707.067 3727.1 715.333 3722.84 721.2C3718.57 727.067 3714.04 732.933 3709.24 738.8C3704.44 744.133 3699.64 750.533 3694.84 758C3690.57 764.933 3687.1 774.8 3684.44 787.6C3683.9 811.6 3683.37 834 3682.84 854.8C3682.3 875.6 3681.77 896.4 3681.24 917.2C3681.24 937.467 3680.7 958.267 3679.64 979.6C3679.1 1000.93 3678.57 1023.6 3678.04 1047.6C3678.04 1065.2 3679.37 1079.33 3682.04 1090C3685.24 1100.13 3689.24 1108.93 3694.04 1116.4C3698.84 1123.33 3704.17 1129.2 3710.04 1134C3716.44 1138.8 3722.84 1144.4 3729.24 1150.8L3641.24 1241.2C3631.1 1232.13 3621.77 1223.87 3613.24 1216.4C3605.24 1208.4 3598.04 1200.67 3591.64 1193.2C3585.24 1185.73 3579.64 1178 3574.84 1170C3570.57 1162 3567.1 1152.93 3564.44 1142.8C3562.3 1144.93 3559.1 1147.6 3554.84 1150.8L3462.04 1245.2C3454.57 1240.93 3447.1 1235.33 3439.64 1228.4C3432.7 1220.93 3425.77 1212.93 3418.84 1204.4C3412.44 1195.33 3406.57 1186 3401.24 1176.4C3395.9 1166.27 3391.64 1156.4 3388.44 1146.8L3387.64 1146C3381.24 1154.53 3372.97 1163.33 3362.84 1172.4C3352.17 1180.93 3341.77 1185.2 3331.64 1185.2C3344.44 1162.8 3354.84 1140.67 3362.84 1118.8C3370.3 1096.93 3374.84 1074 3376.44 1050C3375.9 1021.2 3375.9 986 3376.44 944.4C3377.5 902.8 3378.04 850.267 3378.04 786.8L3459.64 749.2ZM3534.84 1139.6C3535.9 1141.2 3538.84 1141.47 3543.64 1140.4C3548.97 1127.07 3552.7 1112.93 3554.84 1098C3556.97 1083.07 3558.57 1067.87 3559.64 1052.4V1049.2V1023.6V1018.8V986.8C3559.1 959.6 3558.84 932.4 3558.84 905.2C3558.84 877.467 3560.44 852.4 3563.64 830C3551.9 827.333 3540.7 824.667 3530.04 822C3519.9 818.8 3510.3 815.867 3501.24 813.2C3499.64 854.8 3498.3 894.267 3497.24 931.6C3496.7 968.933 3496.44 1002.27 3496.44 1031.6C3496.44 1042.27 3497.5 1053.2 3499.64 1064.4C3501.77 1075.6 3504.7 1086.27 3508.44 1096.4C3512.17 1106 3516.17 1114.8 3520.44 1122.8C3525.24 1130.27 3530.04 1135.87 3534.84 1139.6Z" fill="#F5F5F5"/>
<path d="M4733.4 543.6L4788.6 491.6V440.4L4637.4 553.2C4612.87 558.533 4589.67 559.333 4567.8 555.6C4545.93 551.333 4525.13 544.667 4505.4 535.6C4485.67 526 4467 514.533 4449.4 501.2C4431.8 487.333 4415 473.733 4399 460.4C4383.53 446.533 4368.6 433.467 4354.2 421.2C4340.33 408.4 4327 398.267 4314.2 390.8C4304.07 387.067 4294.73 386.8 4286.2 390C4278.2 392.667 4269.67 397.2 4260.6 403.6C4249.93 408.933 4240.6 416.667 4232.6 426.8C4225.13 436.933 4218.73 448.4 4213.4 461.2C4209.67 470.267 4207.27 479.6 4206.2 489.2C4205.13 498.8 4205.13 508.133 4206.2 517.2C4209.4 539.6 4214.73 560.133 4222.2 578.8C4229.67 596.933 4240.87 613.733 4255.8 629.2C4280.87 652.133 4310.73 668.933 4345.4 679.6C4380.6 689.733 4414.73 692.133 4447.8 686.8C4453.13 685.2 4461.13 681.733 4471.8 676.4C4482.47 670.533 4493.93 664.667 4506.2 658.8C4519 652.933 4531.53 647.867 4543.8 643.6C4556.07 638.8 4566.73 636.667 4575.8 637.2C4573.13 644.667 4567.8 653.2 4559.8 662.8C4551.8 672.4 4544.33 679.6 4537.4 684.4C4533.67 688.667 4528.6 691.333 4522.2 692.4C4515.8 693.467 4509.13 695.067 4502.2 697.2C4483 700.933 4459.8 703.333 4432.6 704.4C4405.4 704.933 4377.13 701.2 4347.8 693.2C4330.2 688.4 4312.87 682 4295.8 674C4279.27 665.467 4264.07 654.8 4250.2 642C4236.87 628.667 4225.67 613.2 4216.6 595.6C4207 577.467 4200.6 556.667 4197.4 533.2C4193.13 511.867 4193.67 490 4199 467.6C4204.33 444.667 4213.4 423.6 4226.2 404.4C4238.47 384.667 4253.93 367.6 4272.6 353.2C4291.8 338.8 4313.13 328.667 4336.6 322.8L4361.4 314.8C4375.27 305.733 4388.07 301.733 4399.8 302.8C4412.07 303.867 4424.07 308.133 4435.8 315.6C4447.53 322.533 4459.53 331.867 4471.8 343.6C4484.07 354.8 4497.4 366.533 4511.8 378.8C4526.73 391.067 4543 402.8 4560.6 414C4578.2 425.2 4597.93 434 4619.8 440.4C4642.2 446.8 4667.27 450 4695 450C4722.73 449.467 4753.93 443.867 4788.6 433.2V232.4C4789.13 222.267 4791.8 211.333 4796.6 199.6C4801.93 187.867 4810.47 175.867 4822.2 163.6C4833.93 150.8 4849.93 138 4870.2 125.2C4890.47 111.867 4916.33 99.0667 4947.8 86.8C4948.87 92.6666 4948.33 100.133 4946.2 109.2C4944.6 118.267 4944.33 126.267 4945.4 133.2C4951.27 149.733 4953.4 165.2 4951.8 179.6C4950.2 193.467 4946.47 201.467 4940.6 203.6C4935.27 197.2 4929.93 194 4924.6 194C4919.27 194 4914.47 195.6 4910.2 198.8C4884.07 206.267 4862.2 218.267 4844.6 234.8C4827.53 251.333 4815.53 268.933 4808.6 287.6C4807 289.2 4806.2 291.867 4806.2 295.6V471.6L4855.8 425.2C4858.47 423.067 4864.33 422.533 4873.4 423.6C4883 424.133 4894.73 426.8 4908.6 431.6C4923 435.867 4939 442.533 4956.6 451.6C4974.2 460.133 4992.6 471.6 5011.8 486C5025.13 496.133 5037.13 506.8 5047.8 518C5058.47 528.667 5068.6 538.8 5078.2 548.4C5088.33 558 5098.47 566.267 5108.6 573.2C5118.73 579.6 5129.67 583.6 5141.4 585.2C5148.33 586.267 5155.53 582 5163 572.4C5170.47 562.267 5177.13 550.8 5183 538C5189.4 525.2 5194.2 512.667 5197.4 500.4C5201.13 487.6 5202.73 478.8 5202.2 474C5208.6 490 5210.47 506 5207.8 522C5205.67 538 5200.33 554 5191.8 570C5183.27 585.467 5172.6 600.4 5159.8 614.8C5147 628.667 5133.13 641.467 5118.2 653.2C5103.27 664.4 5088.33 674.267 5073.4 682.8C5058.47 691.333 5044.6 697.733 5031.8 702C5007.27 690.267 4986.47 677.2 4969.4 662.8C4952.87 647.867 4936.87 633.2 4921.4 618.8C4905.93 604.4 4889.4 590.8 4871.8 578C4854.2 565.2 4832.33 554.533 4806.2 546V682C4813.13 686.267 4825.67 691.067 4843.8 696.4C4861.93 701.733 4883 708.133 4907 715.6C4931.53 723.067 4957.67 731.867 4985.4 742C5013.13 751.6 5040.07 763.067 5066.2 776.4C5092.87 789.733 5117.13 804.933 5139 822C5161.4 838.533 5179 857.467 5191.8 878.8C5205.13 899.6 5212.33 923.067 5213.4 949.2C5214.47 975.333 5207.27 1004.13 5191.8 1035.6C5186.47 1046.27 5179.8 1058.8 5171.8 1073.2C5163.8 1087.6 5155.27 1102.53 5146.2 1118C5137.67 1133.47 5128.6 1148.93 5119 1164.4C5109.4 1179.33 5100.33 1193.2 5091.8 1206C5083.27 1218.27 5075.27 1228.4 5067.8 1236.4C5060.87 1244.4 5055.27 1249.2 5051 1250.8C5044.6 1263.6 5036.6 1276.67 5027 1290C5017.93 1303.33 5008.87 1316.13 4999.8 1328.4C4990.73 1341.2 4982.47 1353.2 4975 1364.4C4967.53 1375.6 4962.47 1385.47 4959.8 1394C4955 1399.87 4947.8 1402.27 4938.2 1401.2C4928.6 1400.67 4917.67 1397.47 4905.4 1391.6C4893.67 1385.73 4880.87 1377.73 4867 1367.6C4853.13 1358 4839.53 1347.07 4826.2 1334.8C4809.67 1319.33 4790.73 1303.07 4769.4 1286C4748.07 1268.93 4725.67 1252.4 4702.2 1236.4C4678.73 1220.93 4654.47 1206.8 4629.4 1194C4604.87 1180.67 4580.6 1170 4556.6 1162C4532.6 1154 4509.4 1149.47 4487 1148.4C4465.13 1146.8 4445.13 1149.73 4427 1157.2C4411.53 1164.13 4397.4 1173.73 4384.6 1186C4371.8 1197.73 4360.87 1210.8 4351.8 1225.2C4343.27 1239.07 4336.87 1253.47 4332.6 1268.4C4328.33 1283.33 4327.53 1297.2 4330.2 1310C4332.33 1326.53 4338.2 1342.53 4347.8 1358C4357.93 1373.47 4370.73 1387.6 4386.2 1400.4C4402.2 1413.2 4420.6 1424.13 4441.4 1433.2C4462.2 1442.8 4485.13 1450 4510.2 1454.8C4501.67 1463.33 4488.87 1466.8 4471.8 1465.2C4454.73 1464.13 4436.6 1459.07 4417.4 1450C4398.73 1441.47 4380.33 1429.73 4362.2 1414.8C4344.07 1399.87 4329.4 1382.8 4318.2 1363.6C4307 1344.4 4300.87 1323.87 4299.8 1302C4298.73 1280.13 4305.67 1258 4320.6 1235.6C4335.53 1204.67 4348.07 1177.2 4358.2 1153.2C4368.87 1128.67 4378.2 1107.07 4386.2 1088.4C4394.73 1069.2 4402.47 1052.93 4409.4 1039.6C4416.87 1026.27 4424.87 1015.33 4433.4 1006.8C4441.93 997.733 4451.8 991.067 4463 986.8C4474.2 982.533 4487.8 979.867 4503.8 978.8C4519.8 977.733 4540.6 980.4 4566.2 986.8C4591.8 993.2 4619.8 1002.53 4650.2 1014.8C4592.6 980.133 4538.2 951.067 4487 927.6C4436.33 903.6 4388.6 884.667 4343.8 870.8C4299 856.4 4257.67 846.8 4219.8 842C4181.4 837.2 4146.2 836.133 4114.2 838.8C4100.33 857.467 4090.47 878 4084.6 900.4C4078.73 922.8 4075.8 945.467 4075.8 968.4C4075.27 996.667 4077.93 1026 4083.8 1056.4C4089.67 1086.27 4098.2 1114.8 4109.4 1142C4122.73 1175.07 4137.67 1204.13 4154.2 1229.2C4170.73 1253.73 4186.47 1271.87 4201.4 1283.6C4207.8 1282 4215 1283.07 4223 1286.8C4230.47 1290.53 4237.67 1295.33 4244.6 1301.2C4251.53 1307.6 4257.13 1314 4261.4 1320.4C4266.2 1326.8 4268.33 1331.6 4267.8 1334.8C4257.67 1336.4 4247.53 1335.6 4237.4 1332.4C4227.8 1329.2 4219.27 1324.93 4211.8 1319.6C4203.8 1314.27 4197.93 1308.4 4194.2 1302C4190.47 1296.13 4189.4 1291.6 4191 1288.4C4175.53 1275.6 4160.07 1256.67 4144.6 1231.6C4128.6 1206.53 4113.93 1178 4100.6 1146C4089.4 1117.73 4080.6 1088.67 4074.2 1058.8C4067.8 1028.93 4065.4 998.8 4067 968.4C4067 945.467 4069.93 923.067 4075.8 901.2C4081.67 879.333 4091.27 858.533 4104.6 838.8C4097.13 839.867 4090.47 840.933 4084.6 842C4078.2 843.067 4071.27 843.867 4063.8 844.4C4022.2 855.067 3987.8 872.133 3960.6 895.6C3933.4 919.067 3912.87 946.8 3899 978.8C3884.6 1011.87 3877.4 1047.87 3877.4 1086.8C3876.87 1125.73 3883 1166 3895.8 1207.6C3908.07 1248.13 3926.47 1288.13 3951 1327.6C3975.53 1367.07 4006.2 1403.87 4043 1438C4079.27 1472.13 4121.4 1502.27 4169.4 1528.4C4217.4 1554.53 4271 1574.53 4330.2 1588.4C4335.53 1584.67 4342.47 1583.33 4351 1584.4C4360.07 1585.47 4368.87 1587.6 4377.4 1590.8C4385.93 1594 4393.4 1597.73 4399.8 1602C4406.2 1606.8 4409.93 1611.07 4411 1614.8C4401.93 1619.07 4392.33 1621.2 4382.2 1621.2C4372.07 1621.2 4362.47 1619.87 4353.4 1617.2C4344.87 1614.53 4337.67 1611.07 4331.8 1606.8C4325.93 1603.07 4323 1599.07 4323 1594.8C4263.27 1581.47 4209.4 1561.47 4161.4 1534.8C4112.87 1508.13 4070.47 1477.47 4034.2 1442.8C3997.4 1408.67 3966.73 1371.33 3942.2 1330.8C3917.13 1290.8 3898.47 1250.27 3886.2 1209.2C3873.93 1168.13 3868.07 1127.6 3868.6 1087.6C3868.6 1047.6 3876.07 1010.8 3891 977.2C3905.4 942 3926.73 912.4 3955 888.4C3983.27 863.867 4019 846.267 4062.2 835.6C4070.2 835.067 4078.2 834.267 4086.2 833.2C4094.2 831.6 4101.93 830.533 4109.4 830C4113.13 824.667 4117.13 820.4 4121.4 817.2C4125.13 813.467 4129.4 809.467 4134.2 805.2C4150.2 789.733 4170.2 775.867 4194.2 763.6C4217.67 750.8 4245.93 740.933 4279 734C4302.47 729.733 4327 729.467 4352.6 733.2C4378.2 736.4 4404.6 743.067 4431.8 753.2C4459 762.8 4486.47 775.333 4514.2 790.8C4542.47 806.267 4570.73 823.867 4599 843.6C4622.47 859.6 4645.67 876.667 4668.6 894.8C4692.07 912.933 4715.27 932.667 4738.2 954L4788.6 907.6V880.4C4788.6 880.4 4785.4 879.6 4779 878C4773.13 876.4 4765.4 874.267 4755.8 871.6C4746.2 868.933 4735.27 865.733 4723 862C4711.27 857.733 4699.27 852.667 4687 846.8C4667.8 838.267 4650.73 827.067 4635.8 813.2C4620.87 799.333 4611.53 781.2 4607.8 758.8C4606.2 748.667 4605.67 738.267 4606.2 727.6C4607.27 716.4 4608.6 706 4610.2 696.4C4612.33 686.267 4615 677.467 4618.2 670C4621.4 662 4624.6 655.867 4627.8 651.6C4640.6 635.6 4651.8 619.067 4661.4 602C4671 584.4 4680.87 567.867 4691 552.4C4701.13 536.933 4712.6 523.067 4725.4 510.8C4738.73 498.533 4755.27 489.467 4775 483.6C4764.33 495.867 4755 506 4747 514C4739 522 4731.8 532.133 4725.4 544.4C4722.73 551.333 4720.6 560.4 4719 571.6C4717.4 582.8 4720.07 594.533 4727 606.8C4738.2 626 4748.87 640.933 4759 651.6C4769.13 661.733 4778.73 670 4787.8 676.4L4788.6 541.2C4788.6 535.867 4786.47 532.4 4782.2 530.8C4777.93 529.2 4772.87 528.933 4767 530C4761.67 530.533 4756.07 532.133 4750.2 534.8C4744.87 536.933 4740.87 539.067 4738.2 541.2L4731 548.4L4733.4 543.6ZM4714.2 1042C4727.53 1049.47 4740.6 1056.67 4753.4 1063.6C4766.2 1070 4777.93 1077.73 4788.6 1086.8V1060.4C4779 1053.47 4769.67 1046 4760.6 1038C4751.53 1030 4743 1022.53 4735 1015.6C4727.53 1008.13 4721.13 1001.73 4715.8 996.4C4710.47 990.533 4706.47 986.267 4703.8 983.6L4729.4 961.2C4707 939.867 4684.33 920.133 4661.4 902C4638.47 883.333 4616.6 866.267 4595.8 850.8C4567 831.6 4538.73 814.533 4511 799.6C4483.27 784.133 4456.07 771.6 4429.4 762C4403.27 752.4 4377.67 746 4352.6 742.8C4327.53 739.067 4303.53 739.6 4280.6 744.4C4218.73 758.267 4172.33 780.4 4141.4 810.8C4137.67 815.067 4134.73 818.267 4132.6 820.4C4129.93 822.533 4127.27 825.733 4124.6 830C4158.73 827.333 4196.33 829.2 4237.4 835.6C4279 842 4324.33 853.733 4373.4 870.8C4423 887.333 4476.07 909.733 4532.6 938C4589.13 966.267 4649.67 1000.93 4714.2 1042ZM5015 1242.8C5019.27 1245.47 5023.8 1247.07 5028.6 1247.6C5033.93 1248.13 5038.73 1247.87 5043 1246.8C5042.47 1245.73 5042.2 1243.6 5042.2 1240.4C5058.2 1202 5067.27 1167.33 5069.4 1136.4C5071.53 1105.47 5068.33 1077.73 5059.8 1053.2C5051.8 1028.67 5039 1007.33 5021.4 989.2C5003.8 970.533 4983.53 954.533 4960.6 941.2C4938.2 927.867 4913.67 916.933 4887 908.4C4860.33 899.333 4833.4 892.133 4806.2 886.8V910C4809.4 914.267 4814.73 920.133 4822.2 927.6C4829.67 935.067 4838.2 942.8 4847.8 950.8C4857.4 958.8 4867.53 966.8 4878.2 974.8C4888.87 982.8 4899.53 989.467 4910.2 994.8L4838.2 1058C4863.27 1083.6 4886.47 1109.47 4907.8 1135.6C4929.13 1161.73 4948.33 1187.6 4965.4 1213.2C4975 1219.07 4983.8 1224.13 4991.8 1228.4C5000.33 1232.67 5008.07 1237.47 5015 1242.8ZM4816.6 1075.6C4812.33 1075.6 4808.87 1074.27 4806.2 1071.6V1096.4C4811.53 1100.13 4815.8 1103.87 4819 1107.6C4822.73 1111.33 4827.53 1114.53 4833.4 1117.2C4834.47 1119.33 4838.47 1123.07 4845.4 1128.4C4852.33 1133.73 4860.87 1140.13 4871 1147.6C4881.67 1154.53 4893.4 1162.27 4906.2 1170.8C4919.53 1178.8 4932.6 1187.07 4945.4 1195.6C4927.8 1174.27 4909.67 1152.4 4891 1130C4872.87 1107.07 4853.67 1084.4 4833.4 1062L4816.6 1075.6ZM5309.36 676.4C5322.7 688.133 5332.83 699.333 5339.76 710C5346.7 720.667 5351.5 730.8 5354.16 740.4C5357.36 750 5358.96 759.067 5358.96 767.6C5359.5 775.6 5359.76 783.333 5359.76 790.8C5358.7 841.467 5356.83 886.8 5354.16 926.8C5351.5 966.267 5350.16 1003.6 5350.16 1038.8C5350.16 1049.47 5351.23 1060.13 5353.36 1070.8C5355.5 1081.47 5358.43 1091.6 5362.16 1101.2C5365.9 1110.27 5369.9 1118.53 5374.16 1126C5378.96 1133.47 5383.76 1139.07 5388.56 1142.8C5391.76 1145.47 5394.96 1147.33 5398.16 1148.4C5401.9 1148.93 5404.3 1149.73 5405.36 1150.8C5406.96 1151.33 5406.96 1152.67 5405.36 1154.8C5404.3 1156.4 5400.83 1159.87 5394.96 1165.2L5306.16 1244.4C5291.76 1236.4 5279.23 1223.33 5268.56 1205.2C5257.9 1187.07 5249.63 1168.67 5243.76 1150L5242.96 1149.2C5236.56 1157.73 5228.3 1166.27 5218.16 1174.8C5207.5 1183.33 5197.36 1187.6 5187.76 1187.6C5201.1 1164.67 5211.76 1142 5219.76 1119.6C5227.76 1097.2 5232.3 1073.73 5233.36 1049.2V1029.2V1027.6V1028.4C5233.9 1006 5234.43 979.6 5234.96 949.2C5236.03 918.267 5236.56 881.2 5236.56 838C5236.56 820.933 5235.5 808.133 5233.36 799.6C5231.76 791.067 5229.36 785.2 5226.16 782C5222.96 778.267 5218.96 776.4 5214.16 776.4C5208.83 775.867 5202.96 775.6 5196.56 775.6L5309.36 676.4ZM5218.16 569.2L5297.36 490.8C5302.16 496.133 5307.76 502.533 5314.16 510C5321.1 517.467 5328.3 524.933 5335.76 532.4C5343.23 539.867 5350.7 546.533 5358.16 552.4C5366.16 557.733 5373.9 560.933 5381.36 562L5296.56 649.2L5218.16 569.2ZM5450.55 1023.6C5449.48 994.8 5448.95 962.8 5448.95 927.6C5448.95 891.867 5448.95 855.067 5448.95 817.2C5448.95 778.8 5449.22 740.133 5449.75 701.2C5450.28 661.733 5450.55 623.6 5450.55 586.8C5450.55 575.6 5450.55 564.667 5450.55 554C5450.55 543.333 5451.08 533.2 5452.15 523.6C5453.22 513.467 5455.08 503.867 5457.75 494.8C5460.95 485.733 5465.48 477.467 5471.35 470C5478.82 460.4 5488.15 451.6 5499.35 443.6C5511.08 435.6 5523.62 428.4 5536.95 422C5550.28 415.067 5563.88 408.933 5577.75 403.6C5592.15 397.733 5606.28 392.4 5620.15 387.6C5611.08 395.067 5603.62 401.733 5597.75 407.6C5591.88 412.933 5587.35 419.867 5584.15 428.4C5577.75 444.933 5574.55 463.6 5574.55 484.4C5575.08 504.667 5575.08 524.933 5574.55 545.2C5574.02 574.533 5573.48 605.733 5572.95 638.8C5572.42 671.333 5571.88 704.133 5571.35 737.2C5571.35 769.733 5571.08 801.733 5570.55 833.2C5570.55 864.667 5570.28 893.733 5569.75 920.4C5569.75 946.533 5569.75 969.467 5569.75 989.2C5569.75 1008.93 5569.75 1023.6 5569.75 1033.2C5569.75 1043.87 5570.82 1054.53 5572.95 1065.2C5575.62 1075.33 5578.82 1084.93 5582.55 1094C5586.82 1102.53 5591.35 1110.53 5596.15 1118C5601.48 1124.93 5606.55 1130.27 5611.35 1134C5616.15 1137.73 5620.42 1139.07 5624.15 1138C5628.42 1136.93 5631.88 1135.33 5634.55 1133.2C5637.22 1131.07 5639.08 1129.73 5640.15 1129.2C5641.75 1128.67 5642.82 1130.8 5643.35 1135.6L5535.35 1245.2C5527.88 1240.93 5520.42 1235.33 5512.95 1228.4C5506.02 1221.47 5499.08 1213.73 5492.15 1205.2C5485.75 1196.13 5479.88 1186.8 5474.55 1177.2C5469.22 1167.07 5464.95 1157.2 5461.75 1147.6L5460.95 1146.8C5454.55 1155.33 5446.28 1164.13 5436.15 1173.2C5425.48 1181.73 5415.08 1186 5404.95 1186C5420.42 1158.8 5432.15 1132.13 5440.15 1106C5448.15 1079.33 5451.62 1051.07 5450.55 1021.2V1023.6ZM5853.74 1230C5821.21 1225.73 5794.54 1216.67 5773.74 1202.8C5752.94 1188.93 5736.68 1172.13 5724.94 1152.4C5713.21 1132.13 5704.94 1109.47 5700.14 1084.4C5695.88 1059.33 5693.21 1033.2 5692.14 1006C5691.61 978.267 5691.88 950.267 5692.94 922C5694.54 893.2 5695.34 865.2 5695.34 838C5695.34 824.133 5691.88 814 5684.94 807.6C5678.01 800.667 5670.81 795.867 5663.34 793.2C5655.88 790.533 5650.01 788.933 5645.74 788.4C5640.94 787.333 5640.94 786 5645.74 784.4L5747.34 688.4C5773.48 711.867 5791.88 731.067 5802.54 746C5813.74 760.933 5819.08 775.867 5818.54 790.8L5816.94 835.6C5819.61 829.733 5821.74 823.867 5823.34 818C5825.48 812.133 5827.88 806.267 5830.54 800.4C5836.94 783.333 5842.81 767.333 5848.14 752.4C5854.01 737.467 5859.08 724.667 5863.34 714C5868.14 701.2 5872.41 689.467 5876.14 678.8L5882.54 682C5893.21 683.6 5905.21 687.067 5918.54 692.4C5931.88 697.2 5945.74 701.467 5960.14 705.2C5974.54 708.4 5988.68 710.267 6002.54 710.8C6016.94 710.8 6030.01 707.067 6041.74 699.6C6027.88 714 6015.88 727.067 6005.74 738.8C5995.61 750 5986.54 760.133 5978.54 769.2C5971.08 777.733 5964.14 785.2 5957.74 791.6C5951.88 797.467 5946.28 802.267 5940.94 806L5858.54 1230.8L5853.74 1230ZM5816.14 1038.8C5816.14 1055.87 5819.61 1069.73 5826.54 1080.4C5833.48 1090.53 5842.01 1098.27 5852.14 1103.6L5910.54 815.6C5902.01 815.6 5892.14 814 5880.94 810.8C5870.28 807.6 5856.41 803.067 5839.34 797.2L5816.94 850.8C5816.41 887.6 5816.14 921.2 5816.14 951.6C5816.14 982 5816.14 1011.07 5816.14 1038.8ZM6099.36 749.2L6136.96 677.2C6149.22 683.067 6160.16 688.133 6169.76 692.4C6179.36 696.667 6188.96 700.4 6198.56 703.6C6208.16 706.8 6218.02 709.467 6228.16 711.6C6238.29 713.733 6250.29 715.067 6264.16 715.6C6278.02 716.133 6289.76 716.4 6299.36 716.4C6309.49 716.4 6318.56 715.867 6326.56 714.8C6334.56 713.733 6342.02 711.867 6348.96 709.2C6356.42 706 6364.16 701.733 6372.16 696.4C6370.02 707.067 6366.82 715.333 6362.56 721.2C6358.29 727.067 6353.76 732.933 6348.96 738.8C6344.16 744.133 6339.36 750.533 6334.56 758C6330.29 764.933 6326.82 774.8 6324.16 787.6C6323.62 811.6 6323.09 834 6322.56 854.8C6322.02 875.6 6321.49 896.4 6320.96 917.2C6320.96 937.467 6320.42 958.267 6319.36 979.6C6318.82 1000.93 6318.29 1023.6 6317.76 1047.6C6317.76 1065.2 6319.09 1079.33 6321.76 1090C6324.96 1100.13 6328.96 1108.93 6333.76 1116.4C6338.56 1123.33 6343.89 1129.2 6349.76 1134C6356.16 1138.8 6362.56 1144.4 6368.96 1150.8L6280.96 1241.2C6270.82 1232.13 6261.49 1223.87 6252.96 1216.4C6244.96 1208.4 6237.76 1200.67 6231.36 1193.2C6224.96 1185.73 6219.36 1178 6214.56 1170C6210.29 1162 6206.82 1152.93 6204.16 1142.8C6202.02 1144.93 6198.82 1147.6 6194.56 1150.8L6101.76 1245.2C6094.29 1240.93 6086.82 1235.33 6079.36 1228.4C6072.42 1220.93 6065.49 1212.93 6058.56 1204.4C6052.16 1195.33 6046.29 1186 6040.96 1176.4C6035.62 1166.27 6031.36 1156.4 6028.16 1146.8L6027.36 1146C6020.96 1154.53 6012.69 1163.33 6002.56 1172.4C5991.89 1180.93 5981.49 1185.2 5971.36 1185.2C5984.16 1162.8 5994.56 1140.67 6002.56 1118.8C6010.02 1096.93 6014.56 1074 6016.16 1050C6015.62 1021.2 6015.62 986 6016.16 944.4C6017.22 902.8 6017.76 850.267 6017.76 786.8L6099.36 749.2ZM6174.56 1139.6C6175.62 1141.2 6178.56 1141.47 6183.36 1140.4C6188.69 1127.07 6192.42 1112.93 6194.56 1098C6196.69 1083.07 6198.29 1067.87 6199.36 1052.4V1049.2V1023.6V1018.8V986.8C6198.82 959.6 6198.56 932.4 6198.56 905.2C6198.56 877.467 6200.16 852.4 6203.36 830C6191.62 827.333 6180.42 824.667 6169.76 822C6159.62 818.8 6150.02 815.867 6140.96 813.2C6139.36 854.8 6138.02 894.267 6136.96 931.6C6136.42 968.933 6136.16 1002.27 6136.16 1031.6C6136.16 1042.27 6137.22 1053.2 6139.36 1064.4C6141.49 1075.6 6144.42 1086.27 6148.16 1096.4C6151.89 1106 6155.89 1114.8 6160.16 1122.8C6164.96 1130.27 6169.76 1135.87 6174.56 1139.6Z" fill="#F5F5F5"/>
</svg>
